<svg xmlns="http://www.w3.org/2000/svg" viewBox="0 0 96 96">
  <defs>
    <radialGradient id="bg" cx="35%" cy="25%" r="75%">
      <stop offset="0" stop-color="#e0f2fe"/>
      <stop offset="1" stop-color="#bae6fd"/>
    </radialGradient>
    <linearGradient id="rubber" x1="18" x2="78" y1="18" y2="78">
      <stop offset="0" stop-color="#334155"/>
      <stop offset="1" stop-color="#020617"/>
    </linearGradient>
  </defs>
  <circle cx="48" cy="48" r="43" fill="url(#bg)"/>
  <circle cx="48" cy="48" r="30" fill="url(#rubber)"/>
  <circle cx="48" cy="48" r="18" fill="#e5e7eb"/>
  <circle cx="48" cy="48" r="8" fill="#64748b"/>
  <g stroke="#94a3b8" stroke-width="4" stroke-linecap="round">
    <path d="M48 27v14"/>
    <path d="M48 55v14"/>
    <path d="M27 48h14"/>
    <path d="M55 48h14"/>
    <path d="M34 34l10 10"/>
    <path d="M62 34l-10 10"/>
    <path d="M34 62l10-10"/>
    <path d="M62 62l-10-10"/>
  </g>
  <g fill="#0f172a" opacity=".35">
    <path d="M31 20l5 7"/>
    <path d="M48 16l1 8"/>
    <path d="M65 20l-5 7"/>
    <path d="M20 31l7 5"/>
    <path d="M16 48l8 1"/>
    <path d="M20 65l7-5"/>
    <path d="M31 80l5-7"/>
    <path d="M65 80l-5-7"/>
  </g>
</svg>
